# xmcd
#
# Track frame offsets: 
#        150
#        13595
#        26895
#        41418
#        61603
#        75498
#        89008
#        108255
#        125900
#        140385
#        150830
#        164915
#
# Disc length: 2359 seconds
#
# Revision: 2
# Processed by: cddbd v1.5.1PL0 Copyright (c) Steve Scherf et al.
# Submitted via: ExactAudioCopy v0.95a5
#
DISCID=9509350c
DTITLE=The Hollisters - The Land of Rhythm and Pleasure
DYEAR=1997
DGENRE=Country
TTITLE0=East Texas Pines
TTITLE1=Good For The Blues
TTITLE2=Tyler
TTITLE3=Better Slow Down
TTITLE4=Sun Will Shine
TTITLE5=Goldbrick Wheeler
TTITLE6=Pike County Blues
TTITLE7=Deacon Brown
TTITLE8=Heart
TTITLE9=Without Love
TTITLE10=I Don't Need No Woman
TTITLE11=Pink Adobe Hacienda
EXTD=
EXTT0=
EXTT1=
EXTT2=
EXTT3=
EXTT4=
EXTT5=
EXTT6=
EXTT7=
EXTT8=
EXTT9=
EXTT10=
EXTT11=
PLAYORDER=
